REM DIRINDEX 1\2,1\3,1\4,1\5
REM DIRNAME folder01,folder02,folder03,folder04,folder05
TITLE ""
FILE "1800_154.mp3" MP3
  TRACK 01 AUDIO
    TITLE "2:cjc044_4866"
    INDEX 01 00:00:00
  TRACK 02 AUDIO
    TITLE "0:"
    INDEX 01 00:00:72
  TRACK 03 AUDIO
    TITLE "3:cjc044_4867"
    INDEX 01 00:01:71
  TRACK 04 AUDIO
    TITLE "0:"
    INDEX 01 00:03:12
  TRACK 05 AUDIO
    TITLE "4:cjc044_4868"
    INDEX 01 00:04:05
  TRACK 06 AUDIO
    TITLE "0:"
    INDEX 01 00:05:07
  TRACK 07 AUDIO
    TITLE "2:cjc044_4869"
    INDEX 01 00:06:65
  TRACK 08 AUDIO
    TITLE "0:"
    INDEX 01 00:08:03
  TRACK 09 AUDIO
    TITLE "3:cjc044_4870"
    INDEX 01 00:08:58
  TRACK 10 AUDIO
    TITLE "0:"
    INDEX 01 00:09:67
  TRACK 11 AUDIO
    TITLE "4:cjc044_4871"
    INDEX 01 00:10:53
  TRACK 12 AUDIO
    TITLE "0:"
    INDEX 01 00:11:66
  TRACK 13 AUDIO
    TITLE "2:cjc044_4872"
    INDEX 01 00:13:45
  TRACK 14 AUDIO
    TITLE "0:"
    INDEX 01 00:14:64
  TRACK 15 AUDIO
    TITLE "3:cjc044_4873"
    INDEX 01 00:15:52
  TRACK 16 AUDIO
    TITLE "0:"
    INDEX 01 00:16:55
  TRACK 17 AUDIO
    TITLE "4:cjc044_4874"
    INDEX 01 00:17:51
  TRACK 18 AUDIO
    TITLE "0:"
    INDEX 01 00:18:66
  TRACK 19 AUDIO
    TITLE "2:cjc044_4875"
    INDEX 01 00:20:49
  TRACK 20 AUDIO
    TITLE "0:"
    INDEX 01 00:21:66
  TRACK 21 AUDIO
    TITLE "3:cjc044_4876"
    INDEX 01 00:22:44
  TRACK 22 AUDIO
    TITLE "0:"
    INDEX 01 00:23:51
  TRACK 23 AUDIO
    TITLE "4:cjc044_4877"
    INDEX 01 00:24:33
  TRACK 24 AUDIO
    TITLE "0:"
    INDEX 01 00:25:48
  TRACK 25 AUDIO
    TITLE "2:cjc044_4878"
    INDEX 01 00:27:28
  TRACK 26 AUDIO
    TITLE "0:"
    INDEX 01 00:28:60
  TRACK 27 AUDIO
    TITLE "3:cjc044_4879"
    INDEX 01 00:29:42
  TRACK 28 AUDIO
    TITLE "0:"
    INDEX 01 00:30:57
  TRACK 29 AUDIO
    TITLE "4:cjc044_4880"
    INDEX 01 00:31:37
  TRACK 30 AUDIO
    TITLE "0:"
    INDEX 01 00:32:72
  TRACK 31 AUDIO
    TITLE "2:cjc044_4881"
    INDEX 01 00:34:55
  TRACK 32 AUDIO
    TITLE "0:"
    INDEX 01 00:35:66
  TRACK 33 AUDIO
    TITLE "3:cjc044_4882"
    INDEX 01 00:36:66
  TRACK 34 AUDIO
    TITLE "0:"
    INDEX 01 00:38:00
  TRACK 35 AUDIO
    TITLE "4:cjc044_4883"
    INDEX 01 00:38:71
  TRACK 36 AUDIO
    TITLE "0:"
    INDEX 01 00:40:07
  TRACK 37 AUDIO
    TITLE "2:cjc044_4884"
    INDEX 01 00:41:69
  TRACK 38 AUDIO
    TITLE "0:"
    INDEX 01 00:43:21
  TRACK 39 AUDIO
    TITLE "3:cjc044_4885"
    INDEX 01 00:44:14
  TRACK 40 AUDIO
    TITLE "0:"
    INDEX 01 00:45:45
  TRACK 41 AUDIO
    TITLE "4:cjc044_4886"
    INDEX 01 00:46:43
  TRACK 42 AUDIO
    TITLE "0:"
    INDEX 01 00:48:00
  TRACK 43 AUDIO
    TITLE "2:cjc044_4887"
    INDEX 01 00:49:63
  TRACK 44 AUDIO
    TITLE "0:"
    INDEX 01 00:51:09
  TRACK 45 AUDIO
    TITLE "3:cjc044_4888"
    INDEX 01 00:51:71
  TRACK 46 AUDIO
    TITLE "0:"
    INDEX 01 00:53:15
  TRACK 47 AUDIO
    TITLE "4:cjc044_4889"
    INDEX 01 00:54:09
  TRACK 48 AUDIO
    TITLE "0:"
    INDEX 01 00:55:36
  TRACK 49 AUDIO
    TITLE "2:cjc044_4890"
    INDEX 01 00:57:21
  TRACK 50 AUDIO
    TITLE "0:"
    INDEX 01 00:58:40
  TRACK 51 AUDIO
    TITLE "3:cjc044_4891"
    INDEX 01 00:59:26
  TRACK 52 AUDIO
    TITLE "0:"
    INDEX 01 01:00:37
  TRACK 53 AUDIO
    TITLE "4:cjc044_4892"
    INDEX 01 01:01:25
  TRACK 54 AUDIO
    TITLE "0:"
    INDEX 01 01:02:46
  TRACK 55 AUDIO
    TITLE "2:cjc044_4893"
    INDEX 01 01:04:29
  TRACK 56 AUDIO
    TITLE "0:"
    INDEX 01 01:05:73
  TRACK 57 AUDIO
    TITLE "3:cjc044_4894"
    INDEX 01 01:06:59
  TRACK 58 AUDIO
    TITLE "0:"
    INDEX 01 01:08:03
  TRACK 59 AUDIO
    TITLE "4:cjc044_4895"
    INDEX 01 01:09:01
  TRACK 60 AUDIO
    TITLE "0:"
    INDEX 01 01:10:43
  TRACK 61 AUDIO
    TITLE "2:cjc044_4896"
    INDEX 01 01:12:30
  TRACK 62 AUDIO
    TITLE "0:"
    INDEX 01 01:13:51
  TRACK 63 AUDIO
    TITLE "3:cjc044_4897"
    INDEX 01 01:14:39
  TRACK 64 AUDIO
    TITLE "0:"
    INDEX 01 01:15:54
  TRACK 65 AUDIO
    TITLE "4:cjc044_4898"
    INDEX 01 01:16:40
  TRACK 66 AUDIO
    TITLE "0:"
    INDEX 01 01:17:61
  TRACK 67 AUDIO
    TITLE "2:cjc044_4899"
    INDEX 01 01:19:48
  TRACK 68 AUDIO
    TITLE "0:"
    INDEX 01 01:21:21
  TRACK 69 AUDIO
    TITLE "3:cjc044_4900"
    INDEX 01 01:22:03
  TRACK 70 AUDIO
    TITLE "0:"
    INDEX 01 01:23:18
  TRACK 71 AUDIO
    TITLE "4:cjc044_4901"
    INDEX 01 01:24:00
  TRACK 72 AUDIO
    TITLE "0:"
    INDEX 01 01:25:51
  TRACK 73 AUDIO
    TITLE "2:cjc044_4902"
    INDEX 01 01:27:32
  TRACK 74 AUDIO
    TITLE "0:"
    INDEX 01 01:28:55
  TRACK 75 AUDIO
    TITLE "3:cjc044_4903"
    INDEX 01 01:29:37
  TRACK 76 AUDIO
    TITLE "0:"
    INDEX 01 01:31:30
  TRACK 77 AUDIO
    TITLE "4:cjc044_4904"
    INDEX 01 01:32:12
  TRACK 78 AUDIO
    TITLE "0:"
    INDEX 01 01:33:36
  TRACK 79 AUDIO
    TITLE "2:cjc044_4905"
    INDEX 01 01:35:10
  TRACK 80 AUDIO
    TITLE "0:"
    INDEX 01 01:36:39
  TRACK 81 AUDIO
    TITLE "3:cjc044_4906"
    INDEX 01 01:37:19
  TRACK 82 AUDIO
    TITLE "0:"
    INDEX 01 01:39:00
  TRACK 83 AUDIO
    TITLE "4:cjc044_4907"
    INDEX 01 01:39:51
  TRACK 84 AUDIO
    TITLE "0:"
    INDEX 01 01:41:03
  TRACK 85 AUDIO
    TITLE "2:cjc044_4908"
    INDEX 01 01:42:61
  TRACK 86 AUDIO
    TITLE "0:"
    INDEX 01 01:44:13
  TRACK 87 AUDIO
    TITLE "3:cjc044_4909"
    INDEX 01 01:44:70
  TRACK 88 AUDIO
    TITLE "0:"
    INDEX 01 01:46:06
  TRACK 89 AUDIO
    TITLE "4:cjc044_4910"
    INDEX 01 01:47:01
  TRACK 90 AUDIO
    TITLE "0:"
    INDEX 01 01:48:24
  TRACK 91 AUDIO
    TITLE "2:cjc044_4911"
    INDEX 01 01:50:09
  TRACK 92 AUDIO
    TITLE "0:"
    INDEX 01 01:51:42
  TRACK 93 AUDIO
    TITLE "3:cjc044_4912"
    INDEX 01 01:52:20
  TRACK 94 AUDIO
    TITLE "0:"
    INDEX 01 01:53:33
  TRACK 95 AUDIO
    TITLE "4:cjc044_4913"
    INDEX 01 01:54:11
  TRACK 96 AUDIO
    TITLE "0:"
    INDEX 01 01:55:42
  TRACK 97 AUDIO
    TITLE "2:cjc044_4914"
    INDEX 01 01:57:23
  TRACK 98 AUDIO
    TITLE "0:"
    INDEX 01 01:58:52
  TRACK 99 AUDIO
    TITLE "3:cjc044_4915"
    INDEX 01 01:59:34
  TRACK 100 AUDIO
    TITLE "0:"
    INDEX 01 02:00:45
  TRACK 101 AUDIO
    TITLE "4:cjc044_4916"
    INDEX 01 02:01:35
  TRACK 102 AUDIO
    TITLE "0:"
    INDEX 01 02:02:64
  TRACK 103 AUDIO
    TITLE "2:cjc044_4917"
    INDEX 01 02:04:47
  TRACK 104 AUDIO
    TITLE "0:"
    INDEX 01 02:06:01
  TRACK 105 AUDIO
    TITLE "3:cjc044_4918"
    INDEX 01 02:06:50
  TRACK 106 AUDIO
    TITLE "0:"
    INDEX 01 02:07:63
  TRACK 107 AUDIO
    TITLE "4:cjc044_4919"
    INDEX 01 02:08:39
  TRACK 108 AUDIO
    TITLE "0:"
    INDEX 01 02:09:68
